<?xml version="1.0" encoding="UTF-8"?><svg id="Layer_1" xmlns="http://www.w3.org/2000/svg" viewBox="0 0 620.01 300.2"><defs><style>.cls-1{letter-spacing:0em;}.cls-2{font-size:190px;}.cls-2,.cls-3{font-family:SourceSansRoman-Semibold, 'Source Sans Variable';font-variation-settings:'wght' 600;font-weight:600;}.cls-2,.cls-3,.cls-4{fill:#231f20;}.cls-5{letter-spacing:-.03em;}.cls-3{font-size:55px;}.cls-6{letter-spacing:-.02em;}.cls-7{letter-spacing:0em;}.cls-8{letter-spacing:-.02em;}.cls-9{letter-spacing:-.04em;}.cls-10{letter-spacing:0em;}.cls-4{stroke-width:0px;}</style></defs><path class="cls-4" d="m115.42,83.27c1.68-4.96,2.58-10.27,2.58-15.79,0-27.06-21.71-49-48.5-49s-48.5,21.94-48.5,49c0,5.52.9,10.83,2.58,15.79C9.88,87.91,0,101.02,0,116.48c0,19.33,15.45,35,34.5,35,1.54,0,3.06-.11,4.55-.31l-16.69-17.09c-1.16-1.19-1.14-3.08.05-4.24,1.19-1.16,3.08-1.14,4.24.05l19.19,19.65c7.62-2.69,14.03-8.01,18.16-14.9v-49.16c0-2.49,2.01-4.5,4.5-4.5s4.5,2.01,4.5,4.5v45.27c1.86,4.21,4.51,7.98,7.76,11.11l29.07-30.45c1.14-1.2,3.04-1.24,4.24-.1s1.24,3.04.1,4.24l-28.73,30.1c5.46,3.68,12.01,5.83,19.06,5.83,19.05,0,34.5-15.67,34.5-35,0-15.46-9.88-28.57-23.58-33.21Z"/><path class="cls-4" d="m73,150v-19.24c-1.92-4.36-3-9.19-3-14.27h-.5c-.17,0-.33,0-.5-.01h0c0,6.66-1.83,12.87-5,18.17v33.49l-18.16-18.59c-2.17.77-4.45,1.32-6.79,1.63l24.95,25.55v26.77c0,2.49,2.01,4.5,4.5,4.5s4.5-2.01,4.5-4.5v-44.8l12.44-13.03c-1.67-1.12-3.23-2.39-4.68-3.79l-7.76,8.13Z"/><text class="cls-2" transform="translate(124.28 157.7)"><tspan class="cls-9" x="0" y="0">T</tspan><tspan class="cls-10" x="95.38" y="0">r</tspan><tspan x="164.35" y="0">ee</tspan></text><text class="cls-3" transform="translate(161.3 200.06)"><tspan x="0" y="0">Ph</tspan><tspan class="cls-8" x="62.7" y="0">o</tspan><tspan class="cls-6" x="91.69" y="0">t</tspan><tspan x="110.66" y="0">og</tspan><tspan class="cls-5" x="169.45" y="0">r</tspan><tspan class="cls-7" x="188.54" y="0">a</tspan><tspan class="cls-1" x="216.92" y="0">p</tspan><tspan x="247.61" y="0">hy</tspan></text></svg>